<svg xmlns="http://www.w3.org/2000/svg" width="531" height="372">
  <rect width="531" height="372" fill="white" stroke="black" stroke-width="1"/>
  <line x1="243.00" y1="263.88" x2="153.00" y2="263.88" stroke="#999999" stroke-width="1.5" stroke-linecap="round"/><line x1="153.00" y1="263.88" x2="108.00" y2="185.94" stroke="#999999" stroke-width="1.5" stroke-linecap="round"/><line x1="108.00" y1="185.94" x2="153.00" y2="108.00" stroke="#999999" stroke-width="1.5" stroke-linecap="round"/><line x1="153.00" y1="108.00" x2="243.00" y2="108.00" stroke="#999999" stroke-width="1.5" stroke-linecap="round"/><line x1="243.00" y1="108.00" x2="288.00" y2="185.94" stroke="#999999" stroke-width="1.5" stroke-linecap="round"/><line x1="288.00" y1="185.94" x2="378.00" y2="185.94" stroke="#999999" stroke-width="1.5" stroke-linecap="round"/><line x1="378.00" y1="185.94" x2="423.00" y2="263.88" stroke="#999999" stroke-width="1.5" stroke-linecap="round"/><line x1="378.00" y1="185.94" x2="423.00" y2="108.00" stroke="#999999" stroke-width="1.5" stroke-linecap="round"/><line x1="288.00" y1="185.94" x2="243.00" y2="263.88" stroke="#999999" stroke-width="1.5" stroke-linecap="round"/>
  <circle cx="243.00" cy="263.88" r="28.80" fill="#C8C8C8" stroke="#666666" stroke-width="2.52"/><circle cx="153.00" cy="263.88" r="28.80" fill="#C8C8C8" stroke="#666666" stroke-width="2.52"/><circle cx="108.00" cy="185.94" r="28.80" fill="#C8C8C8" stroke="#666666" stroke-width="2.52"/><circle cx="153.00" cy="108.00" r="28.80" fill="#C8C8C8" stroke="#666666" stroke-width="2.52"/><circle cx="243.00" cy="108.00" r="28.80" fill="#C8C8C8" stroke="#666666" stroke-width="2.52"/><circle cx="288.00" cy="185.94" r="28.80" fill="#C8C8C8" stroke="#666666" stroke-width="2.52"/><circle cx="378.00" cy="185.94" r="28.08" fill="#A8C4F0" stroke="#666666" stroke-width="2.52"/><circle cx="423.00" cy="263.88" r="27.00" fill="#FFB3B3" stroke="#666666" stroke-width="2.52"/><circle cx="423.00" cy="108.00" r="27.00" fill="#FFB3B3" stroke="#666666" stroke-width="2.52"/>
</svg>